<?xml version="1.0" encoding="UTF-8"?>
<!DOCTYPE svg PUBLIC "-//W3C//DTD SVG 1.1//EN" "http://www.w3.org/Graphics/SVG/1.1/DTD/svg11.dtd">
<!-- Creator: CorelDRAW -->
<svg xmlns="http://www.w3.org/2000/svg" xml:space="preserve" width="114.3mm" height="127mm" version="1.1" style="shape-rendering:geometricPrecision; text-rendering:geometricPrecision; image-rendering:optimizeQuality; fill-rule:evenodd; clip-rule:evenodd"
viewBox="0 0 11430 12700"
 xmlns:xlink="http://www.w3.org/1999/xlink"
 xmlns:xodm="http://www.corel.com/coreldraw/odm/2003">
 <defs>
  <style type="text/css">
   <![CDATA[
    .fil0 {fill:#333333}
    .fil1 {fill:#A6C700}
   ]]>
  </style>
 </defs>
 <g id="Layer_x0020_1">
  <metadata id="CorelCorpID_0Corel-Layer"/>
  <path class="fil0" d="M10951.37 7992.88l-2896.82 0 0 604.19 2298.09 0c37.72,0 68.5,30.75 68.5,68.49l0 505.11c0,37.71 -30.78,68.49 -68.5,68.49l-2298.09 -0.01 0 638.79 2298.09 0c37.72,0 68.5,30.78 68.5,68.49l0 505.11c0,37.71 -30.78,68.49 -68.5,68.49l-2298.09 -0.01 0 604.19 2896.82 0.01c88.02,0 159.82,-71.8 159.82,-159.82l0 -2811.73c0,-88.02 -71.8,-159.79 -159.82,-159.79zm-1903.36 -3110.87c238.33,56.71 465.99,151.21 674.6,279.67l438.37 -194.7 516.66 516.66 -194.65 438.24c128.51,208.64 223.01,436.38 279.72,674.78l447.23 172.14 0 730.66 -332.85 128.1 -1191.45 0c63.79,-151.75 99.06,-318.46 99.06,-493.42 0,-703.82 -570.45,-1274.27 -1274.28,-1274.27 -160.68,0 -314.35,29.81 -455.92,84.06l0 -1273.9 90.61 -235.41 730.66 0 172.24 447.39zm-4779.32 -2564.73c-88.01,0 -159.81,71.8 -159.81,159.82l0 3218.69c307.59,195.38 551.64,477.64 699.87,810.26l0 -100.25c0,-37.71 30.78,-68.49 68.5,-68.49l694.6 0c37.72,0 68.5,30.78 68.5,68.49l0 694.61c0,37.71 -30.78,68.49 -68.5,68.49l-605.86 -0.01c0.96,20.51 1.62,41.1 1.94,61.79 56.74,20.84 107.67,53.81 149.61,95.75 160.11,160.11 160.11,421.75 0,581.84 -44.36,44.36 -98.81,78.7 -159.52,99.24 -12.3,117.97 -35.68,232.65 -69.08,342.97 120.05,-185.14 332.41,-290.8 551.91,-290.8l916.44 -0.01c334.74,0 643.62,250.64 643.62,598.13l0 2465.23 688.35 0 0 -8645.94c0,-88.02 -71.8,-159.82 -159.82,-159.82l-3260.75 0.01zm708.58 -779.29l1843.6 0c88.02,0 159.82,71.8 159.82,159.82l0 254.17 -2163.21 0 0 -254.17c-0.03,-88.02 71.75,-159.82 159.79,-159.82zm739.14 -576.04c0,-100.86 81.78,-182.65 182.65,-182.65 100.87,0 182.65,81.78 182.65,182.65l0 210.76 -365.3 0 0 -210.76zm-793.5 2190.97l1952.3 0c62.88,0 114.15,51.28 114.15,114.15l0 572.33c0,62.88 -51.28,114.15 -114.15,114.15l-1952.3 0c-62.88,0 -114.16,-51.28 -114.16,-114.15l0 -572.33c0,-62.87 51.28,-114.15 114.16,-114.15zm1303.36 3184.39l694.6 0c37.72,0 68.5,30.78 68.5,68.49l0 694.61c0,37.71 -30.78,68.49 -68.5,68.49l-694.6 -0.01c-37.72,0 -68.5,-30.78 -68.5,-68.49l0 -694.61c0,-37.71 30.76,-68.49 68.5,-68.49l0 0.01zm-1349.02 -1349l694.6 0c37.72,0 68.5,30.78 68.5,68.5l0 694.6c0,37.72 -30.78,68.5 -68.5,68.5l-694.6 -0.02c-37.72,0 -68.5,-30.78 -68.5,-68.5l0 -694.6c0,-37.74 30.78,-68.49 68.5,-68.49l0 0.01zm1349.02 0l694.6 0c37.72,0 68.5,30.78 68.5,68.5l0 694.6c0,37.72 -30.78,68.5 -68.5,68.5l-694.6 -0.02c-37.72,0 -68.5,-30.78 -68.5,-68.5l0 -694.6c0,-37.74 30.76,-68.49 68.5,-68.49l0 0.01zm409.36 6134.72l-407.65 0c-211.69,-592.57 -586.02,-1101.84 -1065.51,-1479.72l0 -985.51c0,-144.02 146.35,-232.83 278.35,-232.83l916.45 0c132.01,0 278.33,88.84 278.33,232.83l0 2465.23 0.03 0z"/>
  <path class="fil1" d="M379.97 11920.69l2440.48 0c-9.66,-9.09 -18.92,-18.66 -27.83,-28.7l-623.66 -704.17c-112.67,-127.21 -149.5,-301.22 -97.99,-463.19l433.03 -1361.5c-1166.76,247.84 -2077.5,1188.17 -2281.56,2370.55 -16.97,98.22 57.83,187.01 157.53,187.01zm2527.79 -2621.86l207.92 0c-746.38,-0.84 -1363.75,-552.15 -1468.11,-1269.8l2939.59 0.01c-104.38,717.64 -721.75,1268.95 -1468.12,1269.8l207.84 -0.01 488.69 1536.51c12.54,39.41 4.09,79.34 -23.33,110.27l-623.65 704.16c-27.26,30.78 -75.29,30.78 -102.53,0l-623.66 -704.16c-27.42,-30.93 -35.87,-70.87 -23.33,-110.27l488.69 -1536.51zm792.98 -2851.91c-67.14,174.88 -235.55,295.34 -429.72,295.34l-307.3 -0.01c-194.18,0 -362.57,-120.45 -429.75,-295.34 -47.62,-124.06 -62.35,-379.01 -80.5,-518.69 -481.89,241.19 -801.72,727.88 -820.7,1277.4l2969.18 0.01c-18.85,-545.36 -335.15,-1034.37 -820.71,-1277.38 -18.13,139.66 -32.88,394.66 -80.5,518.67zm1125.87 1216.85l-3418.51 0c-12.58,0 -24.15,-5.3 -32.65,-13.79 -30.3,-30.29 -6.74,-79.08 32.65,-79.08l3372.32 0c32.17,0 59.96,-5.12 78.84,13.76 30.29,30.32 6.75,79.11 -32.65,79.11zm-1862.92 -1286.8c-49.34,0 -89.43,-34 -95.8,-82.93 -26.51,-204.06 -69.47,-442.96 -83.01,-644.15 -6.07,-89.72 190.66,-125.41 263.26,-134.43 62.54,-7.76 70.57,-8.79 133.81,-0.61 73.17,9.5 274.06,43.93 267.85,135.02l-83.01 644.15c-6.35,48.92 -46.46,82.92 -95.8,82.92l-307.3 0 0 0.03zm450.54 5543.72l2440.5 0c99.68,0 174.49,-88.79 157.53,-187.01 -204.09,-1182.35 -1114.83,-2122.71 -2281.59,-2370.54l433.04 1361.54c51.5,161.96 14.7,335.95 -97.99,463.19l-623.65 704.16c-8.91,9.98 -18.17,19.56 -27.83,28.66l-0.01 0z"/>
  <path class="fil1" d="M4797.21 9392.96l0 -735.16c0,-26.76 1.9,-53.1 5.57,-78.91 -104.06,228.7 -253.28,432.51 -436.29,600 149.13,61.02 293.03,132.7 430.72,214.08l0 -0.01z"/>
 </g>
</svg>
