<?xml version="1.0" encoding="UTF-8"?>
<!DOCTYPE svg PUBLIC "-//W3C//DTD SVG 1.1//EN" "http://www.w3.org/Graphics/SVG/1.1/DTD/svg11.dtd">
<!-- Creator: CorelDRAW -->
<svg xmlns="http://www.w3.org/2000/svg" xml:space="preserve" width="114.3mm" height="127mm" version="1.1" style="shape-rendering:geometricPrecision; text-rendering:geometricPrecision; image-rendering:optimizeQuality; fill-rule:evenodd; clip-rule:evenodd"
viewBox="0 0 11430 12700"
 xmlns:xlink="http://www.w3.org/1999/xlink"
 xmlns:xodm="http://www.corel.com/coreldraw/odm/2003">
 <defs>
  <style type="text/css">
   <![CDATA[
    .fil1 {fill:#333333;fill-rule:nonzero}
    .fil0 {fill:#A6C700;fill-rule:nonzero}
   ]]>
  </style>
 </defs>
 <g id="Layer_x0020_1">
  <metadata id="CorelCorpID_0Corel-Layer"/>
  <path class="fil0" d="M10573.53 9339.89l-1121.27 0c-99.16,0 -194.22,39.41 -264.28,109.48l-638.04 638.03 -437.74 -0.14 -638.04 -638.04c-70.06,-70.06 -165.12,-109.47 -264.28,-109.47l-6353.41 0.14c-206.37,0 -373.75,167.39 -373.75,373.76l0 1494.88c0,206.37 167.38,373.75 373.75,373.75l9717.06 0c206.37,0 373.75,-167.38 373.75,-373.75l0 -1494.88c0,-206.37 -167.38,-373.76 -373.75,-373.76z"/>
  <path class="fil1" d="M7209.88 8218.63c-95.63,0 -191.26,-36.44 -264.29,-109.47l-373.75 -373.75c-146.06,-146.06 -146.06,-382.52 0,-528.43 146.05,-145.91 382.51,-146.06 528.42,0l373.76 373.75c146.05,146.06 146.05,382.52 0,528.43 -73.03,73.03 -168.66,109.47 -264.28,109.47l0.14 0z"/>
  <path class="fil1" d="M9452.26 8218.63c-95.63,0 -191.25,-36.44 -264.28,-109.47 -146.06,-146.05 -146.06,-382.51 0,-528.43l373.75 -373.75c146.06,-146.06 382.52,-146.06 528.43,0 145.91,146.05 146.05,382.51 0,528.43l-373.76 373.75c-73.02,73.03 -168.65,109.47 -264.28,109.47l0.14 0z"/>
  <path class="fil1" d="M6462.51 8966.14l-373.76 0c-206.37,0 -373.75,-167.38 -373.75,-373.75 0,-206.37 167.38,-373.76 373.75,-373.76l373.76 0c206.37,0 373.75,167.39 373.75,373.76 0,206.37 -167.38,373.75 -373.75,373.75z"/>
  <path class="fil1" d="M10573.53 8966.14l-373.76 0c-206.37,0 -373.75,-167.38 -373.75,-373.75 0,-206.37 167.38,-373.76 373.75,-373.76l373.76 0c206.37,0 373.75,167.39 373.75,373.76 0,206.37 -167.38,373.75 -373.75,373.75z"/>
  <path class="fil1" d="M6353.04 3250.63l-2132.92 -2132.91 -3737.4 0 4001.55 4001.55c145.91,145.91 382.51,145.91 528.56,0l1340.07 -1340.07c145.91,-145.91 145.91,-382.51 0,-528.57l0.14 0z"/>
  <path class="fil1" d="M8595.42 6833.23l-856.98 -856.98 109.47 -109.48c146.06,-146.05 146.06,-382.51 0,-528.42l-1262.79 -1262.8 -1275.94 1275.94 1262.8 1262.79c73.03,73.03 168.66,109.47 264.28,109.47 95.63,0 191.26,-36.44 264.29,-109.47l109.47 -109.47 747.51 747.51 0 2087.57c0,206.37 167.38,373.76 373.75,373.76 206.37,0 373.76,-167.39 373.76,-373.76l0 -2242.38c0,-99.16 -39.41,-194.22 -109.48,-264.28l-0.14 0z"/>
 </g>
</svg>
