<?xml version="1.0" encoding="UTF-8"?>
<!DOCTYPE svg PUBLIC "-//W3C//DTD SVG 1.1//EN" "http://www.w3.org/Graphics/SVG/1.1/DTD/svg11.dtd">
<!-- Creator: CorelDRAW -->
<svg xmlns="http://www.w3.org/2000/svg" xml:space="preserve" width="114.3mm" height="127mm" version="1.1" style="shape-rendering:geometricPrecision; text-rendering:geometricPrecision; image-rendering:optimizeQuality; fill-rule:evenodd; clip-rule:evenodd"
viewBox="0 0 11430 12700"
 xmlns:xlink="http://www.w3.org/1999/xlink"
 xmlns:xodm="http://www.corel.com/coreldraw/odm/2003">
 <defs>
  <style type="text/css">
   <![CDATA[
    .fil1 {fill:#333333}
    .fil0 {fill:#A6C700}
   ]]>
  </style>
 </defs>
 <g id="Layer_x0020_1">
  <metadata id="CorelCorpID_0Corel-Layer"/>
  <polygon class="fil0" points="441.82,10334.05 10948.1,10316.67 11006.37,8105.18 438.01,8138.95 "/>
  <polygon class="fil1" points="3307.57,5281.39 8117.87,5273.97 6708.42,2365.95 4779.4,2372.88 "/>
  <path class="fil1" d="M3291.86 7561.9l176.38 -77.11c10.83,-4.69 -5.86,-1650.94 13.08,-1826.14l4426.01 -2.05 10.64 1637.36 19.13 268.81 147.97 51.15 108.06 -2250.93 -4991.56 6.54 90.29 2192.37z"/>
  <path class="fil0" d="M7036.09 2849.99c94.28,364.17 87.84,218.93 371.59,388.96 289.79,173.55 1170.41,1795.79 1363.18,2120.72 533.23,899.07 1025.18,1742.4 1587.88,2643.51l511.96 60.22c-72.23,-246.94 -2807.39,-4573.01 -3310.07,-5218.58l-524.54 5.17z"/>
  <polygon class="fil1" points="3994.15,5734.29 3557.55,5741.9 3594.44,7202.6 "/>
  <path class="fil1" d="M7592.45 5735.85c-149.15,21.28 -99.66,27.82 -209.08,78.48l454.17 1378.51 -34.26 -1458.06c-70.18,-1.56 -140.75,-8.98 -210.83,1.07z"/>
  <path class="fil0" d="M4258.23 2849.99c-94.28,364.17 -87.84,218.93 -371.59,388.96 -289.79,173.55 -1170.41,1795.79 -1363.18,2120.72 -533.23,899.07 -1025.18,1742.4 -1587.88,2643.51l-511.96 60.22c72.23,-246.94 2807.39,-4573.01 3310.07,-5218.58l524.54 5.17z"/>
 </g>
</svg>
