<?xml version="1.0" encoding="UTF-8"?>
<!DOCTYPE svg PUBLIC "-//W3C//DTD SVG 1.1//EN" "http://www.w3.org/Graphics/SVG/1.1/DTD/svg11.dtd">
<!-- Creator: CorelDRAW -->
<svg xmlns="http://www.w3.org/2000/svg" xml:space="preserve" width="114.3mm" height="127mm" version="1.1" style="shape-rendering:geometricPrecision; text-rendering:geometricPrecision; image-rendering:optimizeQuality; fill-rule:evenodd; clip-rule:evenodd"
viewBox="0 0 11430 12700"
 xmlns:xlink="http://www.w3.org/1999/xlink"
 xmlns:xodm="http://www.corel.com/coreldraw/odm/2003">
 <defs>
  <style type="text/css">
   <![CDATA[
    .fil0 {fill:#333333;fill-rule:nonzero}
    .fil1 {fill:#A6C700;fill-rule:nonzero}
   ]]>
  </style>
 </defs>
 <g id="Layer_x0020_1">
  <metadata id="CorelCorpID_0Corel-Layer"/>
  <path class="fil0" d="M6223.65 7974.03c875.96,0 1588.73,-712.76 1588.73,-1588.73 0,-875.74 -712.76,-1588.27 -1588.73,-1588.27 -875.74,0 -1588.27,712.53 -1588.27,1588.27 0,875.96 712.53,1588.73 1588.27,1588.73zm0 -2861.86c702.4,0 1273.83,570.98 1273.83,1273.13 0,702.39 -571.43,1273.83 -1273.83,1273.83 -702.18,0 -1273.13,-571.44 -1273.13,-1273.83 0,-702.18 570.96,-1273.13 1273.13,-1273.13zm-866.26 -2495.57l0 -1579.49c0,-46.66 38.33,-84.75 85.42,-84.75l1579.49 0c45.99,0 84.76,38.77 84.76,84.75l0 1579.49c0,45.99 -38.78,84.76 -84.76,84.76l-1579.49 0c-47.12,-0.02 -85.42,-38.12 -85.42,-84.76zm3975.18 2683.55c0,-404.18 328.89,-733.05 733.05,-733.05 403.94,0 732.59,328.89 732.59,733.05 0,403.93 -328.65,732.59 -732.59,732.59 -347.37,0 -639.04,-242.78 -714.33,-567.37 0,-0.45 -0.24,-1.13 -0.45,-1.59 -11.96,-52.51 -18.27,-107.28 -18.27,-163.63l0 0zm-6640.03 937.04l1239.32 0c-3.38,48.92 -4.96,98.28 -4.96,148.1 0,1266.37 1030.14,2296.74 2296.75,2296.74 1266.38,0 2296.75,-1030.36 2296.75,-2296.74 0,-154.64 -15.34,-305.9 -44.64,-452.19l624.17 -225.65c-40.57,-95.81 -67.39,-199.04 -77.53,-307.01l-630.25 227.89c-161.61,-461.43 -466.61,-856.13 -861.54,-1130.01 -0.04,-0.02 -0.09,-0.06 -0.13,-0.08l619.92 -635.82c0.04,0 0.06,0.03 0.1,0.03 10.37,1.13 20.96,1.79 31.55,1.79l894.44 0c162.74,0 295.07,-132.31 295.07,-295.07l0 -894.41c0,-162.3 -132.3,-294.18 -295.07,-294.18l-894.44 0c-162.3,0 -294.38,131.86 -294.38,294.18l0 894.43c0,33.37 5.4,65.15 15.78,95.14 0.03,0.04 0.04,0.09 0.04,0.13l-651.35 668.08c-0.04,-0.02 -0.09,-0.04 -0.13,-0.06 -262.61,-132.31 -554.06,-215.27 -861.99,-237.37l0 -1078.82 -314.9 0 0 1077.71c-555.21,35.4 -1056.97,268.7 -1435.88,630.25 -0.03,0.02 -0.03,0.02 -0.04,0.04l-462.06 -367.94c88.81,-153.72 139.52,-332.01 139.52,-521.79 0,-577.96 -469.99,-1048.18 -1047.73,-1048.18 -577.95,0 -1048.17,470.23 -1048.17,1048.18 0,577.5 470.22,1047.49 1048.17,1047.49 274.57,0 524.77,-105.94 711.63,-279.52 0,0 0.03,-0.02 0.03,-0.02l445.71 354.94c-0.02,0.04 -0.06,0.06 -0.09,0.11 -220.68,277.03 -378.46,605.69 -452.4,964.78l-1236.4 0 -918.8 -569.62c-26.16,110.45 -105.94,200.39 -210.31,240.3l1001.3 620.79c25,15.27 53.64,23.38 82.94,23.38l0 0zm5510.24 -3541.71l853.65 0 0 853.66 -853.65 -0.01 0 -853.65zm-4933.87 1871.63c-404.17,0 -733.05,-328.65 -733.05,-732.59 0,-404.39 328.89,-733.28 733.05,-733.28 403.94,0 732.59,328.89 732.59,733.28 0.02,403.94 -328.63,732.59 -732.59,732.59zm2954.74 -162.99c1092.58,0 1981.63,888.81 1981.63,1981.18 0,1092.58 -889.03,1981.62 -1981.63,1981.62 -1092.81,0 -1981.84,-889.02 -1981.84,-1981.62 -0.02,-1092.37 889.03,-1981.18 1981.84,-1981.18zm-4737.31 896.48l-1198.75 0c-14.41,0 -26.6,-12.17 -26.6,-26.61l0 -1198.75c0,-14.2 12.16,-26.36 26.6,-26.36l1198.75 -0.01c13.75,0 26.37,12.62 26.37,26.37l0 1198.75c0,6.09 -2.48,12.16 -6.31,16.68 -2.03,1.35 -3.83,3.17 -5.63,5.17 -0.23,0 -0.23,0.24 -0.45,0.24 -4.07,2.95 -9.03,4.51 -13.99,4.51l0.01 0.01z"/>
  <path class="fil1" d="M11169.02 6966.43c-4.28,139.98 -14.41,279.05 -30.44,415.89l-431.21 119.48c-344.65,95.35 -601.63,333.16 -723.8,669.47 -32.68,89.26 -67.19,174.92 -102.11,254.27 -141.33,318.96 -124.43,661.82 47.12,965.68l233.09 412.07c-134.58,175.59 -281.09,343.09 -436.62,498.62 -157.12,156.88 -324.14,303.42 -498.18,436.17l-412.07 -233.09c-303.86,-171.77 -646.72,-188.45 -965,-47.56 -93.1,40.8 -176.28,74.38 -255.16,102.34 -336.1,122.4 -573.68,379.36 -669.03,723.8l-120.38 431.45c-374.63,43.5 -770.23,43.5 -1146,0l-119.69 -431.21c-95.35,-344.45 -333.16,-601.64 -670.37,-724.04 -80.7,-29.09 -166.12,-63.57 -253.37,-101.9 -318.72,-141.34 -661.58,-124.43 -965.44,47.12l-412.28 233.09c-173.35,-132.54 -340.82,-278.84 -498.63,-436.17 -155.98,-155.98 -302.49,-323.48 -436.16,-498.62l233.3 -412.07c171.54,-303.86 188.22,-646.72 46.67,-966.34 -35.61,-79.57 -69.88,-164.56 -101.66,-253.15 -122.17,-336.55 -379.15,-574.36 -723.81,-669.93l-431.44 -119.69c-16,-137.72 -26.37,-276.8 -30.89,-415.66l1875.92 -0.01c84.76,1617.35 1428.22,2907.85 3065.63,2907.85 1637.88,0 2981.79,-1290.51 3066.31,-2907.85l1865.7 0 0 -0.01z"/>
 </g>
</svg>
