<?xml version="1.0" encoding="UTF-8"?>
<!DOCTYPE svg PUBLIC "-//W3C//DTD SVG 1.1//EN" "http://www.w3.org/Graphics/SVG/1.1/DTD/svg11.dtd">
<!-- Creator: CorelDRAW -->
<svg xmlns="http://www.w3.org/2000/svg" xml:space="preserve" width="114.3mm" height="127mm" version="1.1" style="shape-rendering:geometricPrecision; text-rendering:geometricPrecision; image-rendering:optimizeQuality; fill-rule:evenodd; clip-rule:evenodd"
viewBox="0 0 11430 12700"
 xmlns:xlink="http://www.w3.org/1999/xlink"
 xmlns:xodm="http://www.corel.com/coreldraw/odm/2003">
 <defs>
  <style type="text/css">
   <![CDATA[
    .fil0 {fill:#333333;fill-rule:nonzero}
    .fil1 {fill:#A6C700;fill-rule:nonzero}
   ]]>
  </style>
 </defs>
 <g id="Layer_x0020_1">
  <metadata id="CorelCorpID_0Corel-Layer"/>
  <path class="fil0" d="M539.94 5343.22c61.34,-20.56 125.72,-31.15 190.45,-31.15 0.81,0 1.83,0 2.63,0l2810.66 0.01 -589.55 -3977.31c-1395.18,875.93 -2291.69,2365.46 -2413.97,4008.31l-0.22 0.14zm6983.12 -4481.74c-0.49,2.04 -0.74,4.13 -0.74,6.23 0,2.1 0.25,4.19 0.73,6.23l-311.38 2491c-64.72,519.35 -506.45,909.25 -1029.9,909.25 -2.66,0 -5.33,0 -7.98,0l-921.7 -0.03c-2.67,0.03 -5.34,0.03 -8,0.03 -523.45,0 -965.18,-389.9 -1029.93,-909.31l-311.38 -2491c0.51,-1.98 0.76,-4.07 0.76,-6.17 0,-2.1 -0.25,-4.19 -0.73,-6.23 -192.97,71.66 -382.12,156.01 -564.43,250.89l622.75 4199.42 3505.88 0.29 622.75 -4199.42c-182.81,-94.91 -373.19,-179.25 -566.67,-251.19l-0.03 0.01zm952.81 473.29l-589.55 3977.31 2810.69 0c0.78,-0.01 1.8,-0.01 2.61,-0.01 64.73,0 129.11,10.59 190.42,31.17 -122.47,-1643.01 -1018.98,-3132.54 -2414.1,-4008.78l-0.07 0.31zm2221.14 4392.48l-9964.02 0c-343.87,0 -622.74,278.87 -622.74,622.75l0 415.16c0,343.87 278.87,622.75 622.75,622.75l9964.01 0.01c343.88,-0.01 622.75,-278.89 622.75,-622.77l0 -415.15c0,-343.88 -278.87,-622.75 -622.75,-622.75zm-3736.51 -5397.17c-118.09,-132.03 -287.03,-207.6 -464.18,-207.6 -0.91,0 -1.98,0 -2.89,0l-1552.72 0.01c-1.48,-0.02 -3.23,-0.02 -4.75,-0.02 -343.87,0 -622.75,278.87 -622.75,622.75 0,25.63 1.68,51.4 4.79,76.79l311.37 2491c38.71,311.84 303.75,546 617.98,546 1.52,0 3.26,0 4.78,0l925.78 -0.01c1.49,0.01 3.23,0.01 4.75,0.01 314.23,0 579.27,-234.16 617.97,-545.96l311.37 -2491c3.4,-26.15 5.07,-52.68 5.07,-79.07 0,-152.13 -55.73,-299.01 -156.54,-412.9l-0.03 0z"/>
  <path class="fil1" d="M10904.6 7765.72l0 301c0,0.17 0,0.35 0,0.52 0,89.03 -56.83,168.19 -141.17,196.67l-938.27 311.37c-85.4,308.99 -207.84,608.35 -363.27,888.71l442.16 882.23c13.24,27.57 20.1,58.06 20.1,88.87 0,53.4 -20.6,104.77 -57.48,143.37l-961.11 961.14c-38.84,38.53 -91.43,60.17 -146.17,60.17 -32.89,0 -65.36,-7.85 -94.63,-22.83l-873.92 -442.13c-278.06,154.61 -573.92,277.55 -880.28,363.51l-311.37 938.27c-28.37,84.09 -107.53,140.91 -196.56,140.91 -0.17,0 -0.35,0 -0.52,0l-1365.91 0.01c-0.18,-0.01 -0.35,-0.01 -0.53,-0.01 -89.03,0 -168.18,-56.82 -196.66,-141.16l-311.38 -938.28c-308.99,-85.39 -608.34,-207.83 -888.71,-363.25l-871.61 442.15c-29.26,14.96 -61.73,22.81 -94.62,22.81 -54.74,0 -107.33,-21.64 -146.19,-60.18l-963.17 -961.11c-38.54,-38.85 -60.19,-91.43 -60.19,-146.18 0,-32.89 7.86,-65.36 22.83,-94.62l452.52 -873.92c-154.61,-278.07 -277.55,-573.93 -363.51,-880.28l-938.27 -311.38c-89.41,-24.96 -151.37,-106.69 -151.37,-199.78 0,-1.85 0.04,-3.77 0.07,-5.6l-0.01 -301c65.08,24.66 134.3,37.37 203.94,37.37 1.2,0 2.46,0 3.65,0l2526.29 0c203.46,1197.02 1241.39,2073.18 2455.72,2073.18 1214.34,0 2252.27,-876.16 2455.73,-2073.15l2526.28 -0.03c1.2,0 2.46,0 3.66,0 69.64,0 138.86,-12.71 203.93,-37.35l0 -0.02z"/>
 </g>
</svg>
