<?xml version="1.0" encoding="UTF-8"?>
<!DOCTYPE svg PUBLIC "-//W3C//DTD SVG 1.1//EN" "http://www.w3.org/Graphics/SVG/1.1/DTD/svg11.dtd">
<!-- Creator: CorelDRAW -->
<svg xmlns="http://www.w3.org/2000/svg" xml:space="preserve" width="110.547mm" height="110.298mm" version="1.1" style="shape-rendering:geometricPrecision; text-rendering:geometricPrecision; image-rendering:optimizeQuality; fill-rule:evenodd; clip-rule:evenodd"
viewBox="0 0 11054.7 11029.8"
 xmlns:xlink="http://www.w3.org/1999/xlink"
 xmlns:xodm="http://www.corel.com/coreldraw/odm/2003">
 <defs>
  <style type="text/css">
   <![CDATA[
    .fil0 {fill:#333333}
    .fil1 {fill:#A6C700}
   ]]>
  </style>
 </defs>
 <g id="Layer_x0020_1">
  <metadata id="CorelCorpID_0Corel-Layer"/>
  <path class="fil0" d="M4915.25 130.76c27.21,-6.7 55.67,-10.26 84.94,-10.26l1078.7 0c195.61,0 354.25,158.66 354.25,354.24 0,1062.78 1287.04,1595.43 2038.24,844.25 138.24,-138.27 363.16,-138.27 501.44,0l762.64 763.3c138.27,138.24 138.27,362.52 0,500.78 -751.18,751.2 -217.89,2038.24 844.23,2038.24 196.24,0 354.25,158.64 354.25,354.25l0 1078.69c0,195.61 -158.01,354.25 -354.25,354.25 -1062.12,0 -1595.42,1287.04 -844.23,2038.24 138.27,138.25 138.27,363.16 0,501.44l-762.64 762.64c-138.27,138.27 -363.19,138.27 -501.44,0 -751.2,-751.17 -2038.24,-217.89 -2038.24,844.24 0,196.24 -158.64,354.24 -354.25,354.24l-1078.7 0c-29.27,0 -57.73,-3.54 -84.94,-10.23l0 -2446.05c201.61,42.94 410.56,65.54 624.67,65.54 1653.71,0 3003.26,-1349.55 3003.26,-3003.27 0,-1654.45 -1349.55,-3003.26 -3003.26,-3003.26 -214.11,0 -423.07,22.59 -624.67,65.5l0 -2446.77z"/>
  <path class="fil1" d="M2074.73 8594.87l-953.59 814.07 0.43 1500.35c-597.02,-334.47 -1000.8,-973.07 -1000.38,-1705.72 0,-816.22 500.4,-1515.08 1210.94,-1807.93l0 -3761.92c-710.54,-292.01 -1211.36,-991.29 -1211.36,-1807.51 0.42,-732.64 403.78,-1370.79 1000.8,-1705.28l0 1499.92 953.16 813.65 953.13 -813.65 0.46 -1500.35c597.02,334.47 999.93,973.07 1000.38,1705.72 0,816.22 -500.86,1515.5 -1211.36,1807.5l0 3761.93c710.96,292.44 1210.91,991.71 1211.36,1807.51 0,733.07 -403.81,1371.67 -1000.38,1705.71l0 -1499.92 -953.59 -814.08z"/>
 </g>
</svg>
