<?xml version="1.0" encoding="UTF-8"?>
<!DOCTYPE svg PUBLIC "-//W3C//DTD SVG 1.1//EN" "http://www.w3.org/Graphics/SVG/1.1/DTD/svg11.dtd">
<!-- Creator: CorelDRAW -->
<svg xmlns="http://www.w3.org/2000/svg" xml:space="preserve" width="114.3mm" height="127mm" version="1.1" style="shape-rendering:geometricPrecision; text-rendering:geometricPrecision; image-rendering:optimizeQuality; fill-rule:evenodd; clip-rule:evenodd"
viewBox="0 0 11430 12700"
 xmlns:xlink="http://www.w3.org/1999/xlink"
 xmlns:xodm="http://www.corel.com/coreldraw/odm/2003">
 <defs>
  <style type="text/css">
   <![CDATA[
    .fil0 {fill:#333333}
    .fil1 {fill:#A6C700}
   ]]>
  </style>
 </defs>
 <g id="Layer_x0020_1">
  <metadata id="CorelCorpID_0Corel-Layer"/>
  <path class="fil0" d="M5358.12 2483.68c606.7,-48.54 1180.95,26.16 1708.38,223.36 650.19,243.08 1268.91,682.76 1689.99,1224.59 459.69,591.51 764.64,1260.56 826.94,2069.41 44.7,580.24 -24.89,1170.83 -220.64,1682.7 -226.29,591.75 -369.67,777.03 -721.57,1213.8 -246.41,305.82 -718.31,680.52 -1073.27,864.09 -442.02,228.61 -924.03,405.79 -1486.18,453 -1031.04,86.59 -2021.46,-212.98 -2798.79,-844.66 -183.56,-149.17 -229.04,-207.79 -376.11,-338.6 -39.8,-35.41 -77.97,-87.48 -113.79,-130.1 -29.5,-35.08 -80.69,-92.26 -112.78,-132.39 -458.25,-573.23 -758.2,-1277.41 -830.07,-2069.09 -202.17,-2227.18 1501.38,-4055.58 3507.89,-4216.11zm-4079.73 728.8c-158.76,238.37 -300.93,473.26 -445.74,757.33 -53.79,105.51 -57.02,102.95 -2.39,207.05 383.92,731.6 276.61,458.45 132.17,1074.05 -59.83,255.04 -3.62,174.62 -257.38,336.61 -62.16,39.67 -116.45,79.71 -179.11,117.64 -212.04,128.36 -218.12,117.78 -226.01,227.13l-13.95 417.9c-0.67,593.67 -38.19,477.36 428.02,771.33 251.79,158.76 191.87,95.74 250.99,341.11 148.99,618.34 227.82,359.61 -44.53,873.49 -153.57,289.74 -160.36,258.12 -85.24,408.09 126.22,251.98 290.62,545.6 441.64,744.97 133.3,20.16 281.27,19.44 417.86,29.16 490.13,34.85 246.54,-21.89 570.09,294.12 69.44,67.81 166.41,135.83 222.73,197.66 120.53,132.35 26.23,581.17 94.11,763.1 23.23,62.26 413.73,281.14 513.25,340.68 388.97,232.72 368.99,168.47 580.08,63.04 454.21,-226.85 359.41,-231.22 585.55,-164.99 111.06,32.52 226.17,68.26 343.69,94.38 178.23,39.63 188.33,1.98 275.21,140.67l330.56 519.16c308.04,14.53 704.98,45.01 1005.91,-4.91l297.34 -435.96c95.34,-145.26 74.37,-164.7 174.89,-188.44l580.05 -157.11c165.07,-51.61 591.08,302.47 727.22,300.71 53.36,-0.69 408.93,-201.26 479.83,-243.06 144.11,-84.95 378.96,-197.04 390.9,-321.88 12.25,-128.15 6.99,-604.11 56.01,-680.64 20.17,-31.49 155.46,-131.03 196.96,-170.81 180.08,-172.64 243.02,-322.88 377.46,-336.4 112.6,-11.32 235.89,-11.45 350.86,-19 98.34,-6.47 263.71,10.85 323.93,-41.62 73.3,-63.86 362.4,-588.65 412.92,-687.8 104.44,-205.03 81.26,-124.04 -92.63,-489.4 -173.56,-364.67 -179.97,-270.77 -98.55,-522.44 212.38,-656.42 -35.07,-403.43 394.11,-686.18 327.85,-215.98 345.8,-178.66 356.13,-380.39l1.66 -681.96c-11.12,-182.43 3.3,-167.11 -124.86,-248.83 -546.94,-348.77 -477.8,-256.93 -548.35,-547.4 -66.77,-274.96 -168.72,-445.14 -104.09,-569.21 41.87,-80.37 79.45,-150.1 119.55,-230.56 184.23,-369.66 197.16,-299.98 97.03,-502.25 -78.38,-158.33 -168.31,-317.91 -259.1,-457.3 -34.11,-52.38 -111.42,-187.43 -143.12,-220.69 -53.1,-55.7 -193.43,-41.82 -316.91,-49.34 -116.86,-7.12 -234.88,-10.99 -350.51,-19.08 -138.56,-9.68 -147.68,-56.89 -212.82,-136.88 -423.26,-519.75 -399.5,-72.82 -437.36,-1014.96 -5.72,-142.5 -59.84,-148.57 -154.26,-209.58 -122.59,-79.22 -614.73,-374.98 -699.21,-386.79 -168.4,-23.56 -563.58,357.65 -757.38,292.64 -94.35,-31.65 -174,-56.39 -268.89,-82.8 -272.47,-75.83 -332.07,-32.33 -408.56,-149.69 -30.91,-47.44 -37.08,-62.49 -67.68,-107.11 -89.43,-130.38 -196.29,-326.19 -286.39,-431.42 -169.42,-58.24 -794.4,-35.93 -1001.25,-5.89 -72.8,79.34 -121.46,172.4 -174.92,257.9 -263.11,420.79 -194.15,339.71 -454.34,400.03 -645.6,149.66 -316.93,231.82 -920.09,-72.01 -113.42,-57.12 -190.45,-138.32 -311.16,-77.44 -147.33,74.3 -755.15,397.7 -781.72,490.18 -57.8,201.26 40.07,633.08 -98.2,761.2 -80.97,75.04 -151.03,127.27 -229.79,206.74 -382.81,386.24 -45.23,225.18 -972.22,304.15z"/>
  <path class="fil1" d="M4608.81 9027.28l-325.05 -168.09c-536.89,-325.86 -911.05,-706.27 -1181.18,-1281.43 -371.9,-791.83 -355.64,-1673.09 -10.32,-2432.75 175.37,-385.8 555.9,-897.68 889.45,-1100.19l5.11 1292.86c0.01,215.49 -2.98,430.49 -2.73,645.92 0.29,245.35 -6.11,357.45 -133.65,532.67 -164.36,225.81 -530.7,404.25 -342.02,866.11 74.28,181.82 496.77,666.28 637.99,650.26 31.69,-80.91 -106.57,-507.31 -135.49,-610.37 -45.01,-160.37 -50.21,-184.4 52.37,-274.32 33.6,-29.46 192.17,-166.52 223.12,-180.97 77.72,-36.29 258.2,14.05 340.67,29.79 148.44,28.33 146.18,43.88 184.89,199.77 34.15,137.54 127.12,533.31 172.73,604.64 79.74,-18.29 86.73,-53.69 143.75,-217.77 27.94,-80.38 57.73,-178.77 78.7,-268.87 45.02,-193.41 51.96,-463.84 -37.36,-616.87 -80.35,-137.67 -270.55,-230.82 -354.79,-359.96 -122.99,-188.56 -109.07,-355.57 -108.65,-615.97 0.3,-186.05 19.18,-2723.98 -3.01,-2834.63l-119.31 32.44c-20.85,166.65 -1.6,2486.46 -4.46,2924.67 -1.03,156.93 -26.54,249.12 -143.86,296.46 -126.35,50.97 -240.46,-19.64 -288.32,-96.64 -66.67,-107.24 -32.15,-1083.47 -32.15,-1247.53 0,-311.13 15.81,-1477.16 -3.4,-1684.84l-343.32 197.43c-326.3,200.28 -662.85,519.16 -895.64,815.61 -324.62,413.41 -578.84,920.19 -709.02,1577.37 -177.84,897.88 70.38,2039.68 596.21,2723.86 86.34,112.34 160.7,215.12 253.83,323.19 35.13,40.77 94.25,97.46 138.33,140.83 46.96,46.2 96.23,103 153.76,150.35 809.46,667.45 1661.18,1009.45 2771.1,904.71l1.54 -722.05c-301.33,4.37 -504.99,33.61 -813.84,-17.23 -118.04,-19.42 -239.88,-47.56 -343.26,-76.55 -102.78,-28.83 -220.88,-87.25 -312.72,-101.91z"/>
  <g>
   <path class="fil1" d="M6791.98 4956.48c66.02,-4.85 122.68,1.22 176.05,-19.16 38.69,-14.78 73.82,-50.56 120.54,-50.06 100.69,1.07 -10.64,53.42 301.07,65.94 73.92,150.88 79.95,121.57 212.39,217.96 7.21,67.05 -3.01,112.7 18.72,174.88 16.25,46.51 55.71,83.53 52.46,128.62 -2.63,36.68 -45.25,84.26 -56.46,129.93 -35.75,145.7 39.83,126.64 -88.28,207.94 -112.54,71.42 -108.42,149.62 -142.94,167.86 -68.28,7.28 -118.08,-1.26 -175.99,20.96 -45.24,17.36 -73.01,50.19 -120.18,49.78 -106.06,-0.93 15.81,-56.41 -301.6,-66.24 -66.81,-137.39 -80,-137.59 -213.86,-219.34 -13.32,-302.23 -64.04,-195.28 -69.87,-291.24 -3.16,-51.99 37.98,-72.04 54.87,-125.81 16.42,-52.3 10.72,-112.52 14.82,-167.94 49.57,-51.66 84.43,-48.36 127.67,-91.24 36.18,-35.89 62.76,-95.57 90.59,-132.84zm488.53 1567.21c-43.89,-193.24 -282.85,-211.05 -360.74,-63.69 -44.89,84.95 -24.6,477.9 -24.96,605.94 -1.16,409.63 0.92,819.3 -0.43,1228.93l-0.69 1466.88c142.4,-27.98 255.46,-101.96 386.39,-148.02l0.43 -3090.04zm2042.28 -435.27c-81.18,-750.35 -309.11,-1413.63 -758.43,-1964.34 -798.64,-978.85 -1872.25,-1468.28 -3201.82,-1368.91l-3.99 720.95c606.58,-10.84 878.23,-20.17 1405.62,178.81 726.69,274.18 1328.81,869.1 1624.24,1586.68 207.79,504.69 212.34,788.22 211.81,1384.57 -56.43,229.6 -21.66,292.32 -140.03,641.34 -69.66,205.41 -151.37,372.29 -245.14,540.74 -173.06,310.92 -495.77,663.78 -750.11,844.35 -4.73,-9.73 -8.42,-49.03 -11.26,-110.02 9.97,-173.07 6.99,-436.72 -8.36,-555.68 -1.13,-537.75 7.47,-1227.56 7.73,-1374.86 0.99,-563.44 108.47,-443.16 318.72,-712.77 173.41,-222.36 158.16,-564.13 28.81,-818.73 -259.79,-511.33 -980.52,-553.33 -1337.33,-124.18 -154.57,185.9 -248.71,508.43 -131.98,807.16 102.5,262.34 334.39,316.24 395.08,667.56l-0.09 3381.97 127.86 -30.69 7.46 -3249.5c23.29,-124.99 115.68,-230.13 275.67,-199.55 155.78,29.78 182.95,147.28 182.35,313.49l-0.22 1466.29c-20.15,244.53 2.07,1017.93 -3.99,1292.2 -0.26,11.76 -0.41,102.49 0.79,107.37 10.38,42.4 -22.68,66.36 2.96,65.5l0 1.58 22.08 -4.89c5.67,-1.16 12.24,-2.62 19.9,-4.4 616.83,-328.53 1074.91,-751.66 1420.56,-1300.84 368.54,-585.57 582.6,-1325.2 541.11,-2181.2zm-1857.85 2564.19l-21.58 1.94c4.31,-28.57 7.75,-67.24 10.32,-111.96l11.26 110.02zm-19.62 -665.7c-0.34,-2.67 -0.69,-5.28 -1.05,-7.79l-118.46 81.88c-2.51,12.66 -4.64,30.32 -6.43,52.1l125.94 -126.19zm-126.18 1591.26c4.94,-0.16 12.07,-1.26 22.08,-3.31l-22.08 3.31z"/>
  </g>
  <path class="fil1" d="M4157.99 3088.76l0.14 2874.6c37.3,190.42 385.33,276.59 382.66,-119.06 -3.02,-447.95 -15.94,-2671.35 5,-2905.75 -135.89,26.45 -273.37,107.35 -387.8,150.21z"/>
 </g>
</svg>
