<?xml version="1.0" encoding="UTF-8"?>
<!DOCTYPE svg PUBLIC "-//W3C//DTD SVG 1.1//EN" "http://www.w3.org/Graphics/SVG/1.1/DTD/svg11.dtd">
<!-- Creator: CorelDRAW -->
<svg xmlns="http://www.w3.org/2000/svg" xml:space="preserve" width="110.547mm" height="110.298mm" version="1.1" style="shape-rendering:geometricPrecision; text-rendering:geometricPrecision; image-rendering:optimizeQuality; fill-rule:evenodd; clip-rule:evenodd"
viewBox="0 0 11054.7 11029.8"
 xmlns:xlink="http://www.w3.org/1999/xlink"
 xmlns:xodm="http://www.corel.com/coreldraw/odm/2003">
 <defs>
  <style type="text/css">
   <![CDATA[
    .fil0 {fill:#333333;fill-rule:nonzero}
    .fil1 {fill:#A6C700;fill-rule:nonzero}
   ]]>
  </style>
 </defs>
 <g id="Layer_x0020_1">
  <metadata id="CorelCorpID_0Corel-Layer"/>
  <path class="fil0" d="M8722.28 5236.56l-867.78 -851.41c-32.74,-32.75 -65.5,-49.12 -98.24,-49.12l-5304.93 0c-98.24,0 -130.99,65.49 -130.99,98.24 -16.37,16.37 -32.74,98.23 32.75,163.73l409.33 409.33c98.24,98.24 147.36,212.86 147.36,343.84 0,130.99 -49.12,245.6 -147.36,343.84l-409.33 409.33c-65.5,65.5 -49.12,147.36 -32.75,163.74 16.38,16.38 49.12,98.24 130.99,98.24l5304.93 -0.01c32.74,0 81.86,-16.37 98.24,-49.12l867.78 -851.41c32.74,-32.74 49.12,-65.5 49.12,-114.62 0,-49.11 -16.38,-81.86 -49.12,-114.61l0 0.01zm-409.33 -2652.47c-98.24,-98.24 -147.36,-212.86 -147.36,-343.84 0,-130.98 49.12,-245.6 147.36,-343.84l409.33 -409.33c65.49,-65.5 49.12,-147.36 32.74,-163.74 -16.37,-16.37 -49.12,-98.24 -147.36,-98.24l-2505.1 0 -1146.13 0 -1637.32 0c-32.75,0 -81.87,16.38 -114.62,49.12l-867.78 851.42c-32.74,32.74 -49.12,65.49 -49.12,114.61 0,32.75 16.38,81.87 49.12,114.62l867.78 851.41c32.74,32.74 65.5,49.12 114.62,49.12l5304.93 -0.01c98.24,0 130.98,-65.49 147.36,-98.24 16.37,-16.37 32.74,-98.24 -32.74,-163.73l-425.71 -409.33z"/>
  <path class="fil1" d="M7821.75 10590.61c0,98.24 -81.87,163.74 -163.74,163.74l-4257.04 -0.01c-98.24,0 -163.74,-81.86 -163.74,-163.74 0,-81.87 81.87,-163.73 163.74,-163.73l1719.19 0.01 0 -3733.11 802.29 0 0 3716.73 1735.57 0c98.24,0 163.74,81.86 163.74,180.1l-0.01 0.01z"/>
  <path class="fil1" d="M5807.84 390.07c-65.5,-65.5 -163.74,-114.62 -278.35,-114.62 -229.22,0 -409.33,180.11 -409.33,409.34l0 212.85 802.29 0 0 -212.85c16.38,-114.62 -32.74,-212.86 -114.61,-294.72z"/>
  <polygon class="fil1" points="5120.16,3582.85 5120.16,3992.19 5922.45,3992.19 5922.45,3582.85 "/>
 </g>
</svg>
