<?xml version="1.0" encoding="UTF-8"?>
<!DOCTYPE svg PUBLIC "-//W3C//DTD SVG 1.1//EN" "http://www.w3.org/Graphics/SVG/1.1/DTD/svg11.dtd">
<!-- Creator: CorelDRAW -->
<svg xmlns="http://www.w3.org/2000/svg" xml:space="preserve" width="31.3118mm" height="37.3599mm" version="1.1" style="shape-rendering:geometricPrecision; text-rendering:geometricPrecision; image-rendering:optimizeQuality; fill-rule:evenodd; clip-rule:evenodd"
viewBox="0 0 537.23 641"
 xmlns:xlink="http://www.w3.org/1999/xlink"
 xmlns:xodm="http://www.corel.com/coreldraw/odm/2003">
 <defs>
  <style type="text/css">
   <![CDATA[
    .fil0 {fill:#333333}
    .fil1 {fill:#333333}
    .fil2 {fill:#A6C700}
   ]]>
  </style>
 </defs>
 <g id="Layer_x0020_1">
  <metadata id="CorelCorpID_0Corel-Layer"/>
  <g id="_2043674766688">
   <path class="fil0" d="M537.23 0c-141.33,39.77 -767.53,297.69 -447.12,512.91 -11.59,-164.36 345.13,-433.4 447.12,-512.91z"/>
   <path class="fil1" d="M240.97 609.2c0,0 -78.08,-17.78 -95.28,-62.22 -15.99,-172.38 156.78,-307.39 217.81,-364.1 -108.04,129.36 -154.48,255.76 -122.53,426.33z"/>
   <path class="fil2" d="M254.9 471.13c0,0 -11.82,65.17 20.01,109.98 0,0 13.65,20.37 8.19,50.91 0,0 51.85,12.22 124.62,8.15 0,0 -120.98,-69.25 -152.81,-169.04z"/>
  </g>
 </g>
</svg>
