<svg version="1.1" id="Layer_1" xmlns="http://www.w3.org/2000/svg" xmlns:xlink="http://www.w3.org/1999/xlink" x="0px" y="0px"
	 width="100%" viewBox="0 0 916 264" enable-background="new 0 0 916 264" xml:space="preserve">
<path fill="#000000" opacity="1.000000" stroke="none" 
	d="
M687.000000,265.000000 
	C458.393494,265.000000 229.787018,265.000000 1.090262,265.000000 
	C1.090262,177.083420 1.090262,89.166702 1.090262,1.000000 
	C229.356583,1.000000 457.713257,1.000000 686.746338,1.428657 
	C687.291321,3.506072 687.045654,5.154799 687.045227,6.803594 
	C687.025330,79.599426 687.025696,152.395264 687.035645,225.191101 
	C687.035828,226.641907 687.178772,228.092667 687.253784,229.518463 
	C727.597839,230.025253 779.214294,211.694290 799.822571,169.157379 
	C812.959778,142.041412 816.133057,113.811737 809.142822,84.289787 
	C802.105164,54.567726 785.026428,32.131107 760.591614,14.161679 
	C767.813721,14.110327 775.004456,13.831110 781.724731,15.475119 
	C797.854004,19.420933 811.502136,28.152555 823.307678,39.727516 
	C836.234436,52.401783 845.426941,67.802544 854.717773,83.128654 
	C858.428223,89.249474 862.880249,94.484520 870.022095,97.063118 
	C882.138428,101.437775 892.833496,97.612312 903.366333,92.052490 
	C907.890991,89.664085 912.454285,87.348602 917.000000,85.000000 
	C917.000000,99.356659 917.000000,113.713318 916.934143,128.925171 
	C915.458923,131.208008 914.049622,132.635666 912.387939,134.281860 
	C904.567078,145.738464 897.455200,157.320862 889.310364,168.124481 
	C879.864441,180.653824 868.157227,191.069061 855.450867,200.297989 
	C836.043152,214.394241 814.762329,224.550140 791.714355,231.249573 
	C772.066223,236.960739 752.120728,240.511719 731.674744,240.999313 
	C721.483276,241.242355 711.279053,241.154205 701.084656,240.980591 
	C696.555115,240.903427 692.035522,240.244354 687.000000,239.804779 
	C687.000000,248.751541 687.000000,256.875763 687.000000,265.000000 
M11.073491,82.830078 
	C11.063367,96.214539 10.044969,109.694908 11.306596,122.958397 
	C12.776595,138.412491 15.899573,142.202698 27.132051,145.362961 
	C29.935827,146.151810 33.053566,145.960022 36.028618,145.980087 
	C45.944992,146.047012 55.862103,146.005432 66.809883,146.005432 
	C59.631378,161.157135 49.825729,172.934937 37.820652,182.980362 
	C41.171879,187.000610 44.096535,190.509125 47.413570,194.488358 
	C64.390045,181.773148 76.212509,165.682846 83.557037,146.003647 
	C85.813103,146.003647 87.969482,146.003616 90.125870,146.003647 
	C174.625641,146.004776 259.125397,146.006058 343.625183,146.006821 
	C351.071960,146.006897 358.507019,146.027924 365.041412,141.525208 
	C365.709198,141.065048 367.180908,140.933121 367.790588,141.355194 
	C374.763062,146.181900 382.713745,145.994186 390.625763,145.998230 
	C420.625671,146.013519 450.625610,146.002487 480.625519,146.001343 
	C482.566589,146.001266 484.507690,146.001343 486.535828,146.001343 
	C486.535828,117.283646 486.535828,89.249641 486.535828,61.426464 
	C481.206573,61.426464 476.293671,61.426464 470.926453,61.426464 
	C470.926453,84.086845 470.926453,106.346008 470.926453,128.783997 
	C455.703552,128.783997 440.953156,128.783997 426.147858,128.783997 
	C432.304688,98.310287 426.878357,72.256569 423.212219,61.430607 
	C418.536499,62.142948 413.883270,62.851856 408.558228,63.663116 
	C414.481171,85.338196 414.032227,107.007790 411.803436,129.016495 
	C401.607391,129.016495 391.954437,129.168106 382.310638,128.937927 
	C378.718506,128.852203 375.568085,127.339676 374.919495,123.109932 
	C374.598541,121.016838 374.060394,118.920311 374.047485,116.822708 
	C373.966827,103.713654 374.006775,90.603859 374.006775,77.451309 
	C368.713531,77.451309 364.013306,77.451309 359.049774,77.451309 
	C359.049774,92.035324 358.987091,106.191750 359.085022,120.347069 
	C359.117676,125.067314 356.929382,128.494263 352.481506,128.689575 
	C341.747223,129.160950 330.978302,128.842438 319.762329,128.842438 
	C319.762329,111.393250 319.762329,94.468063 319.762329,77.041328 
	C315.839813,77.041328 312.365387,77.250534 308.927612,76.985039 
	C305.163361,76.694321 303.930542,78.233322 303.983063,81.863731 
	C304.142151,92.861259 304.085388,103.861954 304.106384,114.861427 
	C304.115173,119.465935 304.107849,124.070473 304.107849,128.650055 
	C289.662079,128.650055 275.949036,128.650055 262.008362,128.650055 
	C262.008362,126.919449 262.008362,125.598518 262.008362,124.277580 
	C262.008179,106.110962 261.961578,87.944122 262.050079,69.777939 
	C262.066223,66.462379 261.685638,64.697357 257.615814,63.694252 
	C241.627701,59.753571 225.566971,57.328800 209.218292,60.176914 
	C201.445892,61.530945 193.312805,63.978642 190.287491,72.330429 
	C187.978775,78.703934 186.614883,85.670021 186.262497,92.446945 
	C185.633453,104.543915 186.085464,116.697105 186.085464,128.714813 
	C173.449356,128.714813 159.859360,128.714813 145.880676,128.714813 
	C145.880676,126.568565 145.880341,124.764244 145.880707,122.959923 
	C145.886581,94.460266 145.904724,65.960602 145.874390,37.460991 
	C145.872070,35.283497 146.698273,32.326897 143.073669,32.171413 
	C138.830978,31.989412 134.574509,32.128849 129.868164,32.128849 
	C129.868164,64.838585 129.868164,96.757935 129.868164,128.652451 
	C115.004707,128.652451 100.621834,128.652451 86.007812,128.652451 
	C86.007812,126.425819 86.007858,124.605110 86.007797,122.784401 
	C86.007202,104.951118 85.978294,87.117744 86.034401,69.284645 
	C86.043526,66.384521 85.724655,64.807663 82.123329,63.782463 
	C66.343788,59.290459 50.438892,57.698174 34.212803,60.125713 
	C27.455288,61.136692 20.696100,62.931545 16.765261,69.077957 
	C14.271040,72.978020 12.970364,77.641403 11.073491,82.830078 
M581.463074,181.930923 
	C590.696106,171.873734 592.277344,159.214172 593.306702,145.862579 
	C612.243469,145.862579 630.962463,145.862579 649.733032,145.862579 
	C649.733032,117.368767 649.733032,89.456825 649.733032,61.410835 
	C644.751953,61.410835 640.050964,61.410835 634.935242,61.410835 
	C634.935242,84.048080 634.935242,106.305016 634.935242,128.733917 
	C620.796265,128.733917 607.081604,128.733917 592.763794,128.733917 
	C592.763794,106.032661 592.763794,83.652786 592.763794,61.389912 
	C587.567261,61.389912 582.981628,61.389912 578.000183,61.389912 
	C578.000183,63.710964 578.019287,65.683105 577.997314,67.654793 
	C577.685669,95.587883 577.212097,123.520393 577.120605,151.454178 
	C577.076843,164.822281 570.807983,173.827011 559.004639,179.694229 
	C561.159058,184.199493 563.246765,188.565201 565.832153,193.971771 
	C571.167969,189.899734 576.057739,186.168106 581.463074,181.930923 
M522.005981,35.779835 
	C522.005981,72.380959 522.005981,108.982086 522.005981,145.710983 
	C527.241028,145.710983 531.821960,145.710983 536.521240,145.710983 
	C536.521240,107.730202 536.521240,70.039284 536.521240,32.105377 
	C533.602844,32.105377 531.112732,32.103733 528.622620,32.106102 
	C527.455994,32.107212 526.134888,31.772133 525.161987,32.208950 
	C523.961609,32.747932 523.050781,33.931931 522.005981,35.779835 
M214.016068,29.615379 
	C214.852295,31.684620 215.366058,33.971691 216.587921,35.780434 
	C219.698792,40.385475 224.925171,41.313816 229.000397,38.303444 
	C234.100662,34.535835 235.749130,29.715080 233.241440,25.900862 
	C229.378830,20.025780 224.121780,18.374767 219.249344,22.078787 
	C217.069824,23.735661 215.763138,26.540710 214.016068,29.615379 
M488.959381,29.601362 
	C487.479675,27.159269 486.485046,24.148153 484.422455,22.389845 
	C479.675415,18.343105 475.310974,19.320333 470.978333,24.655039 
	C467.765625,28.610798 468.531067,32.615292 472.291351,36.829517 
	C477.188904,42.318245 485.931610,41.087666 488.959381,29.601362 
M621.496399,25.110064 
	C617.982788,31.017401 621.686462,39.155849 628.264282,39.981670 
	C631.761230,40.420689 638.277283,36.589268 639.508362,32.750282 
	C640.724854,28.957048 639.029480,25.920469 635.931458,23.365255 
	C629.765625,18.279819 628.225037,18.316502 621.496399,25.110064 
M646.114319,33.140858 
	C648.812683,35.414818 651.179443,38.778812 654.282410,39.722954 
	C659.781677,41.396198 662.487244,36.471012 664.907532,32.676598 
	C667.842285,28.075600 663.617249,25.616108 661.138489,22.674210 
	C658.486084,19.526178 655.189575,18.961712 651.910156,20.840544 
	C646.689819,23.831339 644.707397,28.163887 646.114319,33.140858 
z"/>
<path fill="#E21F51" opacity="1.000000" stroke="none" 
	d="
M917.000000,84.531342 
	C912.454285,87.348602 907.890991,89.664085 903.366333,92.052490 
	C892.833496,97.612312 882.138428,101.437775 870.022095,97.063118 
	C862.880249,94.484520 858.428223,89.249474 854.717773,83.128654 
	C845.426941,67.802544 836.234436,52.401783 823.307678,39.727516 
	C811.502136,28.152555 797.854004,19.420933 781.724731,15.475119 
	C775.004456,13.831110 767.813721,14.110327 760.591614,14.161679 
	C785.026428,32.131107 802.105164,54.567726 809.142822,84.289787 
	C816.133057,113.811737 812.959778,142.041412 799.822571,169.157379 
	C779.214294,211.694290 727.597839,230.025253 687.253784,229.518463 
	C687.178772,228.092667 687.035828,226.641907 687.035645,225.191101 
	C687.025696,152.395264 687.025330,79.599426 687.045227,6.803594 
	C687.045654,5.154799 687.291321,3.506072 687.211304,1.428657 
	C763.559753,1.000000 840.119446,1.000000 917.000000,1.000000 
	C917.000000,28.686735 917.000000,56.374710 917.000000,84.531342 
M731.861206,214.090271 
	C753.629456,203.576736 771.212097,188.221588 783.705627,167.556396 
	C792.392822,153.187195 797.925781,137.463394 796.911682,120.384193 
	C796.310730,110.263161 794.718506,100.108803 792.502319,90.208870 
	C791.070251,83.811546 787.703064,77.847427 785.005554,71.202637 
	C783.458313,77.533607 782.792175,83.006012 780.781677,87.929466 
	C776.224854,99.088478 770.619324,105.486244 756.597351,99.996521 
	C744.929749,95.428596 732.922424,91.861916 720.134521,94.975632 
	C714.687378,96.301941 709.500854,98.241623 704.395081,103.232605 
	C709.286621,103.232605 712.844177,102.781822 716.249207,103.311378 
	C730.286560,105.494446 741.922302,112.031708 751.312744,122.822601 
	C764.756104,138.270767 769.723572,159.992035 760.313599,179.391693 
	C753.402405,193.640045 742.599182,204.040955 729.843445,213.668030 
	C729.698792,214.018661 729.554138,214.369308 729.409424,214.719940 
	C729.985535,214.529480 730.561584,214.339020 731.861206,214.090271 
M872.403381,19.868431 
	C857.781250,29.428804 859.084473,52.008755 874.684326,60.324615 
	C891.266907,69.164352 911.302856,56.115749 910.277466,38.897583 
	C909.653564,28.420700 904.520569,21.535286 896.103455,17.181190 
	C888.412903,13.202968 880.221985,13.776233 872.403381,19.868431 
M751.674255,169.850403 
	C754.243835,158.699875 752.462280,148.271667 746.681396,138.464279 
	C746.088989,139.410675 746.049561,140.327148 745.880066,141.218903 
	C744.188721,150.117996 740.161072,152.272522 731.484558,149.780502 
	C727.289124,148.575485 722.764465,148.110306 718.387817,148.104370 
	C716.002197,148.101135 713.614319,149.758148 711.227417,150.666397 
	C723.609070,151.864075 731.957336,157.557861 736.894165,168.288620 
	C742.130493,179.670532 736.889343,188.961334 730.663696,198.178558 
	C740.785461,191.281036 748.089294,182.475952 751.674255,169.850403 
M764.284485,65.989143 
	C763.383301,65.605019 762.486145,65.211166 761.580261,64.838356 
	C756.722717,62.839249 751.389526,64.580696 748.286926,69.173653 
	C745.974182,72.597305 746.515869,78.783020 749.411194,82.012093 
	C753.979614,87.107155 760.771240,87.586128 765.448242,83.143089 
	C770.466553,78.375847 770.271606,71.739021 764.284485,65.989143 
M729.030579,136.881241 
	C728.729065,140.643768 730.507812,143.129166 734.200928,142.840317 
	C735.875305,142.709381 738.490234,140.551773 738.673706,139.066025 
	C738.889221,137.320419 737.383240,134.657440 735.809326,133.549637 
	C732.960876,131.544754 731.111633,134.250473 729.030579,136.881241 
M729.061951,200.076767 
	C728.628113,200.022568 728.194275,199.968369 727.760437,199.914169 
	C728.062378,200.184509 728.364319,200.454865 729.061951,200.076767 
z"/>
<path fill="#E31F51" opacity="1.000000" stroke="none" 
	d="
M687.468628,265.000000 
	C687.000000,256.875763 687.000000,248.751541 687.000000,239.804779 
	C692.035522,240.244354 696.555115,240.903427 701.084656,240.980591 
	C711.279053,241.154205 721.483276,241.242355 731.674744,240.999313 
	C752.120728,240.511719 772.066223,236.960739 791.714355,231.249573 
	C814.762329,224.550140 836.043152,214.394241 855.450867,200.297989 
	C868.157227,191.069061 879.864441,180.653824 889.310364,168.124481 
	C897.455200,157.320862 904.567078,145.738464 912.754395,134.454941 
	C913.887756,136.390076 914.846191,138.369431 914.851624,140.351410 
	C914.965881,181.900757 914.972290,223.450409 915.000000,265.000000 
	C839.312439,265.000000 763.624878,265.000000 687.468628,265.000000 
z"/>
<path fill="#B23C57" opacity="1.000000" stroke="none" 
	d="
M915.500000,265.000000 
	C914.972290,223.450409 914.965881,181.900757 914.851624,140.351410 
	C914.846191,138.369431 913.887756,136.390076 913.006714,134.236420 
	C914.049622,132.635666 915.458923,131.208008 916.934143,129.390182 
	C917.000000,173.000000 917.008789,217.000015 916.958069,260.999939 
	C916.956482,262.333679 916.333374,263.666687 915.500000,265.000000 
z"/>
<path fill="#E12051" opacity="1.000000" stroke="none" 
	d="
M11.103960,82.396271 
	C12.970364,77.641403 14.271040,72.978020 16.765261,69.077957 
	C20.696100,62.931545 27.455288,61.136692 34.212803,60.125713 
	C50.438892,57.698174 66.343788,59.290459 82.123329,63.782463 
	C85.724655,64.807663 86.043526,66.384521 86.034401,69.284645 
	C85.978294,87.117744 86.007202,104.951118 86.007797,122.784401 
	C86.007858,124.605110 86.007812,126.425819 86.007812,128.652451 
	C100.621834,128.652451 115.004707,128.652451 129.868164,128.652451 
	C129.868164,96.757935 129.868164,64.838585 129.868164,32.128849 
	C134.574509,32.128849 138.830978,31.989412 143.073669,32.171413 
	C146.698273,32.326897 145.872070,35.283497 145.874390,37.460991 
	C145.904724,65.960602 145.886581,94.460266 145.880707,122.959923 
	C145.880341,124.764244 145.880676,126.568565 145.880676,128.714813 
	C159.859360,128.714813 173.449356,128.714813 186.085464,128.714813 
	C186.085464,116.697105 185.633453,104.543915 186.262497,92.446945 
	C186.614883,85.670021 187.978775,78.703934 190.287491,72.330429 
	C193.312805,63.978642 201.445892,61.530945 209.218292,60.176914 
	C225.566971,57.328800 241.627701,59.753571 257.615814,63.694252 
	C261.685638,64.697357 262.066223,66.462379 262.050079,69.777939 
	C261.961578,87.944122 262.008179,106.110962 262.008362,124.277580 
	C262.008362,125.598518 262.008362,126.919449 262.008362,128.650055 
	C275.949036,128.650055 289.662079,128.650055 304.107849,128.650055 
	C304.107849,124.070473 304.115173,119.465935 304.106384,114.861427 
	C304.085388,103.861954 304.142151,92.861259 303.983063,81.863731 
	C303.930542,78.233322 305.163361,76.694321 308.927612,76.985039 
	C312.365387,77.250534 315.839813,77.041328 319.762329,77.041328 
	C319.762329,94.468063 319.762329,111.393250 319.762329,128.842438 
	C330.978302,128.842438 341.747223,129.160950 352.481506,128.689575 
	C356.929382,128.494263 359.117676,125.067314 359.085022,120.347069 
	C358.987091,106.191750 359.049774,92.035324 359.049774,77.451309 
	C364.013306,77.451309 368.713531,77.451309 374.006775,77.451309 
	C374.006775,90.603859 373.966827,103.713654 374.047485,116.822708 
	C374.060394,118.920311 374.598541,121.016838 374.919495,123.109932 
	C375.568085,127.339676 378.718506,128.852203 382.310638,128.937927 
	C391.954437,129.168106 401.607391,129.016495 411.803436,129.016495 
	C414.032227,107.007790 414.481171,85.338196 408.558228,63.663116 
	C413.883270,62.851856 418.536499,62.142948 423.212219,61.430607 
	C426.878357,72.256569 432.304688,98.310287 426.147858,128.783997 
	C440.953156,128.783997 455.703552,128.783997 470.926453,128.783997 
	C470.926453,106.346008 470.926453,84.086845 470.926453,61.426464 
	C476.293671,61.426464 481.206573,61.426464 486.535828,61.426464 
	C486.535828,89.249641 486.535828,117.283646 486.535828,146.001343 
	C484.507690,146.001343 482.566589,146.001266 480.625519,146.001343 
	C450.625610,146.002487 420.625671,146.013519 390.625763,145.998230 
	C382.713745,145.994186 374.763062,146.181900 367.790588,141.355194 
	C367.180908,140.933121 365.709198,141.065048 365.041412,141.525208 
	C358.507019,146.027924 351.071960,146.006897 343.625183,146.006821 
	C259.125397,146.006058 174.625641,146.004776 90.125870,146.003647 
	C87.969482,146.003616 85.813103,146.003647 83.557037,146.003647 
	C76.212509,165.682846 64.390045,181.773148 47.413570,194.488358 
	C44.096535,190.509125 41.171879,187.000610 37.820652,182.980362 
	C49.825729,172.934937 59.631378,161.157135 66.809883,146.005432 
	C55.862103,146.005432 45.944992,146.047012 36.028618,145.980087 
	C33.053566,145.960022 29.935827,146.151810 27.132051,145.362961 
	C15.899573,142.202698 12.776595,138.412491 11.306596,122.958397 
	C10.044969,109.694908 11.063367,96.214539 11.103960,82.396271 
M57.489639,76.007088 
	C50.491871,76.006683 43.494102,76.001945 36.496338,76.006981 
	C27.967091,76.013107 26.007269,77.931244 25.998133,86.284081 
	C25.991026,92.782013 25.995199,99.279953 25.994909,105.777893 
	C25.994572,113.386200 25.994833,120.994499 25.994833,129.055450 
	C38.197659,129.055450 49.822929,129.061584 61.448189,129.053375 
	C69.678177,129.047562 71.002991,127.699303 71.023796,119.175018 
	C71.048607,109.011627 71.023468,98.848106 71.020737,88.684647 
	C71.019630,84.577911 71.020554,80.471176 71.020554,76.006828 
	C66.422150,76.006828 62.453693,76.006828 57.489639,76.007088 
M247.041107,81.647499 
	C246.950043,80.206421 246.858963,78.765350 246.744125,76.948166 
	C234.452179,76.948166 222.488480,76.946991 210.524780,76.948631 
	C203.820847,76.949554 202.089005,78.562866 202.026276,85.375137 
	C201.934265,95.370270 202.004578,105.366898 202.005432,115.362885 
	C202.005814,119.799347 202.005493,124.235817 202.005493,129.056946 
	C214.610489,129.056946 226.575928,129.063721 238.541382,129.054306 
	C245.289001,129.049011 247.014832,127.333191 247.022919,120.606979 
	C247.038147,107.945412 247.034195,95.283821 247.041107,81.647499 
z"/>
<path fill="#E21F51" opacity="1.000000" stroke="none" 
	d="
M581.205322,182.183701 
	C576.057739,186.168106 571.167969,189.899734 565.832153,193.971771 
	C563.246765,188.565201 561.159058,184.199493 559.004639,179.694229 
	C570.807983,173.827011 577.076843,164.822281 577.120605,151.454178 
	C577.212097,123.520393 577.685669,95.587883 577.997314,67.654793 
	C578.019287,65.683105 578.000183,63.710964 578.000183,61.389912 
	C582.981628,61.389912 587.567261,61.389912 592.763794,61.389912 
	C592.763794,83.652786 592.763794,106.032661 592.763794,128.733917 
	C607.081604,128.733917 620.796265,128.733917 634.935242,128.733917 
	C634.935242,106.305016 634.935242,84.048080 634.935242,61.410835 
	C640.050964,61.410835 644.751953,61.410835 649.733032,61.410835 
	C649.733032,89.456825 649.733032,117.368767 649.733032,145.862579 
	C630.962463,145.862579 612.243469,145.862579 593.306702,145.862579 
	C592.277344,159.214172 590.696106,171.873734 581.205322,182.183701 
z"/>
<path fill="#E11F51" opacity="1.000000" stroke="none" 
	d="
M522.010376,35.308517 
	C523.050781,33.931931 523.961609,32.747932 525.161987,32.208950 
	C526.134888,31.772133 527.455994,32.107212 528.622620,32.106102 
	C531.112732,32.103733 533.602844,32.105377 536.521240,32.105377 
	C536.521240,70.039284 536.521240,107.730202 536.521240,145.710983 
	C531.821960,145.710983 527.241028,145.710983 522.005981,145.710983 
	C522.005981,108.982086 522.005981,72.380959 522.010376,35.308517 
z"/>
<path fill="#DC2251" opacity="1.000000" stroke="none" 
	d="
M214.038208,29.220039 
	C215.763138,26.540710 217.069824,23.735661 219.249344,22.078787 
	C224.121780,18.374767 229.378830,20.025780 233.241440,25.900862 
	C235.749130,29.715080 234.100662,34.535835 229.000397,38.303444 
	C224.925171,41.313816 219.698792,40.385475 216.587921,35.780434 
	C215.366058,33.971691 214.852295,31.684620 214.038208,29.220039 
z"/>
<path fill="#DD2251" opacity="1.000000" stroke="none" 
	d="
M488.968506,29.994633 
	C485.931610,41.087666 477.188904,42.318245 472.291351,36.829517 
	C468.531067,32.615292 467.765625,28.610798 470.978333,24.655039 
	C475.310974,19.320333 479.675415,18.343105 484.422455,22.389845 
	C486.485046,24.148153 487.479675,27.159269 488.968506,29.994633 
z"/>
<path fill="#DD2151" opacity="1.000000" stroke="none" 
	d="
M621.770447,24.856503 
	C628.225037,18.316502 629.765625,18.279819 635.931458,23.365255 
	C639.029480,25.920469 640.724854,28.957048 639.508362,32.750282 
	C638.277283,36.589268 631.761230,40.420689 628.264282,39.981670 
	C621.686462,39.155849 617.982788,31.017401 621.770447,24.856503 
z"/>
<path fill="#DC2152" opacity="1.000000" stroke="none" 
	d="
M646.007629,32.778488 
	C644.707397,28.163887 646.689819,23.831339 651.910156,20.840544 
	C655.189575,18.961712 658.486084,19.526178 661.138489,22.674210 
	C663.617249,25.616108 667.842285,28.075600 664.907532,32.676598 
	C662.487244,36.471012 659.781677,41.396198 654.282410,39.722954 
	C651.179443,38.778812 648.812683,35.414818 646.007629,32.778488 
z"/>
<path fill="#000000" opacity="1.000000" stroke="none" 
	d="
M730.291382,213.304810 
	C742.599182,204.040955 753.402405,193.640045 760.313599,179.391693 
	C769.723572,159.992035 764.756104,138.270767 751.312744,122.822601 
	C741.922302,112.031708 730.286560,105.494446 716.249207,103.311378 
	C712.844177,102.781822 709.286621,103.232605 704.395081,103.232605 
	C709.500854,98.241623 714.687378,96.301941 720.134521,94.975632 
	C732.922424,91.861916 744.929749,95.428596 756.597351,99.996521 
	C770.619324,105.486244 776.224854,99.088478 780.781677,87.929466 
	C782.792175,83.006012 783.458313,77.533607 785.005554,71.202637 
	C787.703064,77.847427 791.070251,83.811546 792.502319,90.208870 
	C794.718506,100.108803 796.310730,110.263161 796.911682,120.384193 
	C797.925781,137.463394 792.392822,153.187195 783.705627,167.556396 
	C771.212097,188.221588 753.629456,203.576736 731.288940,213.907410 
	C730.574890,213.584641 730.433167,213.444717 730.291382,213.304810 
z"/>
<path fill="#000000" opacity="1.000000" stroke="none" 
	d="
M872.695801,19.641020 
	C880.221985,13.776233 888.412903,13.202968 896.103455,17.181190 
	C904.520569,21.535286 909.653564,28.420700 910.277466,38.897583 
	C911.302856,56.115749 891.266907,69.164352 874.684326,60.324615 
	C859.084473,52.008755 857.781250,29.428804 872.695801,19.641020 
z"/>
<path fill="#000000" opacity="1.000000" stroke="none" 
	d="
M751.431763,170.193024 
	C748.089294,182.475952 740.785461,191.281036 730.663696,198.178558 
	C736.889343,188.961334 742.130493,179.670532 736.894165,168.288620 
	C731.957336,157.557861 723.609070,151.864075 711.227417,150.666397 
	C713.614319,149.758148 716.002197,148.101135 718.387817,148.104370 
	C722.764465,148.110306 727.289124,148.575485 731.484558,149.780502 
	C740.161072,152.272522 744.188721,150.117996 745.880066,141.218903 
	C746.049561,140.327148 746.088989,139.410675 746.681396,138.464279 
	C752.462280,148.271667 754.243835,158.699875 751.431763,170.193024 
z"/>
<path fill="#000000" opacity="1.000000" stroke="none" 
	d="
M764.620239,66.187195 
	C770.271606,71.739021 770.466553,78.375847 765.448242,83.143089 
	C760.771240,87.586128 753.979614,87.107155 749.411194,82.012093 
	C746.515869,78.783020 745.974182,72.597305 748.286926,69.173653 
	C751.389526,64.580696 756.722717,62.839249 761.580261,64.838356 
	C762.486145,65.211166 763.383301,65.605019 764.620239,66.187195 
z"/>
<path fill="#000000" opacity="1.000000" stroke="none" 
	d="
M729.178833,136.514313 
	C731.111633,134.250473 732.960876,131.544754 735.809326,133.549637 
	C737.383240,134.657440 738.889221,137.320419 738.673706,139.066025 
	C738.490234,140.551773 735.875305,142.709381 734.200928,142.840317 
	C730.507812,143.129166 728.729065,140.643768 729.178833,136.514313 
z"/>
<path fill="#000000" opacity="1.000000" stroke="none" 
	d="
M728.864136,200.401001 
	C728.364319,200.454865 728.062378,200.184509 727.760437,199.914154 
	C728.194275,199.968369 728.628113,200.022568 728.864136,200.401001 
z"/>
<path fill="#000000" opacity="1.000000" stroke="none" 
	d="
M730.927185,213.936569 
	C730.561584,214.339020 729.985535,214.529480 729.409424,214.719940 
	C729.554138,214.369308 729.698792,214.018661 730.067383,213.486420 
	C730.433167,213.444717 730.574890,213.584641 730.927185,213.936569 
z"/>
<path fill="#000000" opacity="1.000000" stroke="none" 
	d="
M57.987434,76.006958 
	C62.453693,76.006828 66.422150,76.006828 71.020554,76.006828 
	C71.020554,80.471176 71.019630,84.577911 71.020737,88.684647 
	C71.023468,98.848106 71.048607,109.011627 71.023796,119.175018 
	C71.002991,127.699303 69.678177,129.047562 61.448189,129.053375 
	C49.822929,129.061584 38.197659,129.055450 25.994833,129.055450 
	C25.994833,120.994499 25.994572,113.386200 25.994909,105.777893 
	C25.995199,99.279953 25.991026,92.782013 25.998133,86.284081 
	C26.007269,77.931244 27.967091,76.013107 36.496338,76.006981 
	C43.494102,76.001945 50.491871,76.006683 57.987434,76.006958 
z"/>
<path fill="#000000" opacity="1.000000" stroke="none" 
	d="
M247.039658,82.134872 
	C247.034195,95.283821 247.038147,107.945412 247.022919,120.606979 
	C247.014832,127.333191 245.289001,129.049011 238.541382,129.054306 
	C226.575928,129.063721 214.610489,129.056946 202.005493,129.056946 
	C202.005493,124.235817 202.005814,119.799347 202.005432,115.362885 
	C202.004578,105.366898 201.934265,95.370270 202.026276,85.375137 
	C202.089005,78.562866 203.820847,76.949554 210.524780,76.948631 
	C222.488480,76.946991 234.452179,76.948166 246.744125,76.948166 
	C246.858963,78.765350 246.950043,80.206421 247.039658,82.134872 
z"/>
</svg>