<?xml version="1.0" encoding="UTF-8"?>
<!DOCTYPE svg PUBLIC "-//W3C//DTD SVG 1.1//EN" "http://www.w3.org/Graphics/SVG/1.1/DTD/svg11.dtd">
<!-- Creator: CorelDRAW -->
<svg xmlns="http://www.w3.org/2000/svg" xml:space="preserve" width="67.1268mm" height="37.3599mm" version="1.1" style="shape-rendering:geometricPrecision; text-rendering:geometricPrecision; image-rendering:optimizeQuality; fill-rule:evenodd; clip-rule:evenodd"
viewBox="0 0 2469.09 1374.19"
 xmlns:xlink="http://www.w3.org/1999/xlink"
 xmlns:xodm="http://www.corel.com/coreldraw/odm/2003">
 <defs>
  <style type="text/css">
   <![CDATA[
    .fil0 {fill:#333333}
    .fil1 {fill:#A6C700}
   ]]>
  </style>
 </defs>
 <g id="Layer_x0020_1">
  <metadata id="CorelCorpID_0Corel-Layer"/>
  <g id="_2041672258384">
   <g>
    <path class="fil0" d="M1055.75 728.58c-33.35,0 -50.81,-15.89 -53.19,-49.23 0,-30.97 21.44,-50.81 63.52,-58.75 30.96,-6.35 59.55,-15.09 84.17,-25.41l0 38.9c0,59.55 -35.73,94.49 -94.49,94.49zm24.61 -262.02c43.67,0 65.9,11.91 68.28,35.73 0,23.02 -23.02,36.52 -68.28,42.08 -106.39,10.33 -179.44,37.32 -181.83,138.15 0,92.9 69.88,139.74 170.71,131.81 113.54,-7.94 183.41,-59.55 183.41,-175.48l0 -142.92c-2.38,-77.81 -61.14,-115.92 -177.06,-115.92 -96.86,0 -151.65,38.11 -164.36,115.92l105.6 0c5.55,-19.84 26.2,-29.37 63.52,-29.37zm408.12 -57.18l0 -23.02 -63.52 0 0 -66.69c0,-27.79 -23.03,-53.2 -50.82,-53.2l-54.79 0 0 458.93c-0.79,46.84 18.27,71.46 57.97,75.43 39.7,3.98 77.02,3.98 111.16,0.8l0 -80.19 -32.55 0c-20.64,0 -30.96,-9.53 -30.96,-27l0 -232.63 11.11 0c29.38,0 52.4,-22.23 52.4,-52.41zm115.13 -142.92l-54.78 0 0 539.92 105.6 0 0 -488.31c0,-27.8 -23.02,-51.62 -50.82,-51.62zm258.05 462.11c-33.35,0 -50.81,-15.89 -53.19,-49.23 0,-30.97 21.44,-50.81 63.52,-58.75 30.97,-6.35 59.55,-15.09 84.17,-25.41l0 38.9c0,59.55 -35.73,94.49 -94.49,94.49zm24.62 -262.02c43.67,0 65.9,11.91 68.28,35.73 0,23.02 -23.02,36.52 -68.28,42.08 -106.39,10.33 -179.45,37.32 -181.83,138.15 0,92.9 69.87,139.74 170.71,131.81 113.54,-7.94 183.41,-59.55 183.41,-175.48l0 -142.92c-2.38,-77.81 -61.14,-115.92 -177.06,-115.92 -96.86,0 -151.65,38.11 -164.36,115.92l105.61 0c5.55,-19.84 26.2,-29.37 63.52,-29.37zm319.18 201.67l-107.99 0c0,48.44 15.89,84.95 47.64,108.77 28.58,24.62 73.05,37.32 131.81,37.32 111.16,0 192.14,-38.11 192.14,-141.33 0,-28.58 -9.53,-53.99 -29.37,-74.64 -23.03,-21.44 -69.88,-39.7 -141.33,-53.99 -54.79,-10.32 -81.79,-27 -81.79,-48.44 0,-21.44 20.65,-32.55 61.93,-32.55 34.94,0 56.38,10.32 63.53,28.58 6.35,16.67 22.22,25.4 46.84,26.2l66.69 0c-2.38,-43.67 -19.06,-77.81 -50.02,-102.42 -31.76,-23.82 -74.64,-35.73 -128.63,-35.73 -96.08,1.59 -167.53,44.46 -167.53,134.98 0.79,65.91 48.44,107.19 141.33,123.86 72.26,12.71 108.77,30.18 108.77,51.62 0,26.99 -22.22,39.7 -66.69,39.7 -51.61,0 -84.96,-15.88 -87.34,-61.93z"/>
    <path class="fil0" d="M1274.9 1176.25l-79.9 0c-13.59,0 -25.58,4.8 -35.96,15.19 -17.59,19.97 -39.16,30.36 -63.94,30.36 -59.13,0.8 -88.69,-41.55 -88.69,-125.45 0,-83.9 27.97,-126.26 83.9,-126.26 33.56,0 55.94,15.18 68.73,43.95l115.86 0c-18.38,-91.9 -79.11,-137.44 -181.39,-137.44 -130.24,2.4 -194.97,75.12 -194.97,219.75 3.19,145.43 68.72,218.94 196.57,218.94 98.29,2.4 160.62,-52.74 179.8,-139.04zm259.06 -299.66c-127.85,0 -191.77,72.72 -191.77,219.75 0,145.43 63.92,218.94 191.77,218.94 127.86,0 192.58,-73.51 192.58,-218.94 0,-147.03 -64.73,-219.75 -192.58,-219.75zm0 93.49c54.35,0 81.51,40.75 81.51,123.06 -0.79,83.9 -27.96,127.05 -82.3,127.05 -54.34,0 -82.31,-41.56 -83.1,-123.86 0,-83.9 27.97,-126.26 83.89,-126.26zm258.26 335.61l107.88 0 0 -219.75c0,-61.53 29.57,-92.69 88.7,-92.69l35.96 0 0 -110.27 -15.18 0c-141.43,0 -214.15,67.92 -217.35,204.56l0 218.15zm669.79 -129.45l-78.31 0c-14.39,0 -26.37,4.8 -35.96,15.19 -20.77,19.97 -43.96,30.36 -68.72,30.36 -51.94,0 -79.91,-32.76 -83.9,-97.48l273.29 0c7.99,-165.41 -55.14,-247.72 -189.39,-247.72 -128.65,0.8 -193.37,72.72 -193.37,216.56 0,143.83 63.92,218.15 191.77,222.14 103.88,0 161.42,-49.54 184.59,-139.04zm-184.59 -212.55c45.55,0 71.92,28.76 78.32,84.71l-159.02 0c7.99,-55.94 35.17,-84.71 80.7,-84.71z"/>
   </g>
   <g>
    <path class="fil0" d="M1151.72 0c-303,85.25 -1645.45,638.19 -958.55,1099.58 -24.84,-352.37 739.89,-929.12 958.55,-1099.58z"/>
    <path class="fil0" d="M516.6 1306.02c0,0 -167.38,-38.12 -204.26,-133.4 -34.27,-369.56 336.11,-658.98 466.94,-780.57 -231.62,277.33 -331.17,548.31 -262.68,913.97z"/>
    <path class="fil1" d="M546.46 1010.02c0,0 -25.35,139.71 42.9,235.77 0,0 29.26,43.66 17.55,109.15 0,0 111.15,26.2 267.15,17.47 0,0 -259.36,-148.45 -327.61,-362.39z"/>
   </g>
  </g>
 </g>
</svg>
